<svg width="17" height="15" viewBox="0 0 17 15" fill="none" xmlns="http://www.w3.org/2000/svg">
<path d="M6 14.5C6.48325 14.5 6.875 14.1082 6.875 13.625C6.875 13.1418 6.48325 12.75 6 12.75C5.51675 12.75 5.125 13.1418 5.125 13.625C5.125 14.1082 5.51675 14.5 6 14.5Z" stroke="#60676B" stroke-linecap="round" stroke-linejoin="round"/>
<path d="M13.875 14.5C14.3582 14.5 14.75 14.1082 14.75 13.625C14.75 13.1418 14.3582 12.75 13.875 12.75C13.3918 12.75 13 13.1418 13 13.625C13 14.1082 13.3918 14.5 13.875 14.5Z" stroke="#60676B" stroke-linecap="round" stroke-linejoin="round"/>
<path d="M0.75 0.5H3.45455L5.26659 9.09171C5.32842 9.38712 5.49777 9.65248 5.74499 9.84135C5.99221 10.0302 6.30155 10.1305 6.61886 10.1248H13.1909C13.5082 10.1305 13.8176 10.0302 14.0648 9.84135C14.312 9.65248 14.4814 9.38712 14.5432 9.09171L15.625 3.70825H4.13068" stroke="#60676B" stroke-linecap="round" stroke-linejoin="round"/>
</svg>
