<svg width="12" height="12" viewBox="0 0 12 12" fill="none" xmlns="http://www.w3.org/2000/svg">
<path d="M4.83334 0C7.50274 0 9.66668 2.16396 9.66668 4.83334C9.66668 5.98794 9.26181 7.04794 8.58635 7.87921L11.8535 11.1465C12.0488 11.3417 12.0488 11.6583 11.8535 11.8535C11.6761 12.0311 11.3983 12.0472 11.2025 11.9019L11.1465 11.8535L7.87921 8.58634C7.04794 9.26181 5.98794 9.66667 4.83334 9.66667C2.16396 9.66667 0 7.50274 0 4.83334C0 2.16396 2.16396 0 4.83334 0ZM4.83334 1C2.71624 1 1 2.71624 1 4.83334C1 6.9504 2.71624 8.66667 4.83334 8.66667C6.95041 8.66667 8.66668 6.9504 8.66668 4.83334C8.66668 2.71624 6.95041 1 4.83334 1Z" fill="#60676B"/>
</svg>
