<svg width="55" height="40" viewBox="0 0 55 40" fill="none" xmlns="http://www.w3.org/2000/svg">
<path d="M4.44601 37.0209C4.20617 37.2305 3.96069 37.4357 3.70799 37.6341C3.28723 37.9641 2.84905 38.2796 2.37268 38.5591C2.21453 38.6511 2.05226 38.7395 1.88281 38.8202C2.46706 38.5066 3.28063 37.9515 4.44601 37.0209Z" fill="#8CC7EC"/>
<path d="M4.56557 37.1536L4.55894 37.1591C4.30344 37.3826 4.06173 37.5833 3.82029 37.7727C3.3254 38.1612 2.89474 38.4593 2.46503 38.7116C2.2923 38.8118 2.13665 38.8956 1.98915 38.9663C1.97972 38.971 1.97045 38.9752 1.96137 38.9797L1.87905 38.822L1.79642 38.6641C1.80101 38.662 1.80523 38.6594 1.80996 38.6569H1.81027C1.88421 38.6169 1.96106 38.5737 2.04097 38.5266C2.08323 38.5017 2.12658 38.4759 2.1704 38.4491C2.21438 38.4222 2.25881 38.3946 2.30467 38.3655C2.32449 38.3533 2.34443 38.3408 2.36437 38.3278C2.69275 38.1174 3.06375 37.8572 3.48104 37.5439C3.56853 37.4782 3.65837 37.41 3.75009 37.3394C3.93369 37.1984 4.1253 37.0481 4.32605 36.8881L4.33245 36.883L4.44888 37.0181L4.56557 37.1536Z" fill="#60676B"/>
<path d="M4.44894 37.0181L4.44797 37.0191C4.44721 37.0198 4.44659 37.0201 4.44596 37.0207C3.28053 37.9514 2.46701 38.5065 1.88272 38.82C1.8824 38.8203 1.88165 38.8203 1.8813 38.8206C1.88067 38.8211 1.87974 38.8217 1.87911 38.822L1.79648 38.6642C1.80107 38.662 1.80529 38.6594 1.80984 38.6569H1.81015C1.88428 38.6169 1.96094 38.5737 2.0409 38.5266C2.08315 38.5017 2.12648 38.4759 2.17046 38.4491C2.21426 38.4222 2.25887 38.3946 2.30473 38.3655C2.32455 38.3533 2.34448 38.3408 2.36443 38.3278C2.69281 38.1174 3.06381 37.8572 3.4811 37.5439C3.56859 37.4782 3.65843 37.41 3.75014 37.3394C3.93362 37.1984 4.12536 37.0481 4.32593 36.8881L4.33252 36.883L4.44894 37.0181Z" fill="#8CC7EC"/>
<path d="M4.44894 37.0181L4.33252 36.883L4.32593 36.8881C4.12536 37.0481 3.93362 37.1984 3.75014 37.3394C3.65843 37.41 3.56859 37.4782 3.4811 37.5439C3.06381 37.8572 2.69281 38.1174 2.36443 38.3278C2.34448 38.3408 2.32455 38.3533 2.30473 38.3655C2.25887 38.3946 2.21426 38.4222 2.17046 38.4491C2.12647 38.4762 2.08315 38.502 2.0409 38.5266C1.96094 38.5737 1.88428 38.6169 1.81015 38.6569H1.80984C1.80529 38.6594 1.80107 38.662 1.79648 38.6641L1.87911 38.822L1.96143 38.9797C1.97051 38.9752 1.97964 38.971 1.98921 38.9663L1.99171 38.9636C2.63459 38.6156 3.47452 38.025 4.55905 37.1591L4.56563 37.1536L4.44894 37.0181Z" fill="#60676B"/>
<path d="M12.1535 25.32C11.7015 25.9181 11.2496 26.5201 10.8091 27.1066L10.4334 27.6082C9.91102 28.3064 9.37059 29.0287 8.83643 29.7364C8.24839 30.5152 7.61464 31.3498 6.96299 32.1759C6.19341 33.1503 5.593 33.8827 5.01596 34.5507C4.65503 34.9694 4.32237 35.3434 3.99928 35.6938C3.64829 36.0738 3.29599 36.4442 2.9514 36.7943C2.52435 37.2275 2.18871 37.5465 1.86295 37.8291C1.65094 38.0117 1.46248 38.1607 1.28623 38.2845C1.07702 38.4316 0.887016 38.5391 0.720505 38.6047L0.705452 38.62L0.662399 38.6262L0.651099 38.6302H0.634937C0.571623 38.6424 0.519935 38.6862 0.498924 38.7471C0.467183 38.8393 0.517572 38.9406 0.611697 38.9723C0.672905 38.9925 0.737462 39.0024 0.809276 39.0024C1.04533 39.0024 1.36134 38.8954 1.77454 38.6761L1.78664 38.6645L1.80988 38.6568C1.80534 38.6594 1.80107 38.6621 1.79652 38.6642L1.87916 38.822L1.9613 38.9797C1.97056 38.9752 1.97969 38.9711 1.98925 38.9661L1.97969 38.9758L1.95341 38.9843C1.47629 39.2388 1.11255 39.3572 0.809276 39.3572C0.697881 39.3572 0.595356 39.3413 0.495934 39.308C0.213548 39.2136 0.0618219 38.9108 0.157447 38.633C0.216035 38.4636 0.354097 38.3371 0.525771 38.291L0.540857 38.2756H0.585422C0.725086 38.221 0.890308 38.1271 1.0764 37.9959C1.24322 37.8787 1.4226 37.7372 1.62503 37.5626C1.9434 37.2868 2.27272 36.9736 2.69286 36.5471C3.03434 36.2001 3.38409 35.8327 3.73212 35.4555C4.05271 35.1078 4.38269 34.7365 4.74123 34.3208C5.31482 33.6568 5.9123 32.9281 6.67828 31.9581C7.3277 31.1344 7.96003 30.302 8.54695 29.5249C9.08093 28.8178 9.62075 28.0958 10.1432 27.3973L10.519 26.8954C11.0155 26.2342 11.5272 25.5533 12.0362 24.8804L12.1535 25.32Z" fill="#60676B"/>
<path d="M39.8947 17.6923L39.313 19.3568L37.585 24.3036L36.7975 20.9188L36.0833 17.8478C36.8388 16.9362 37.5936 16.0339 38.329 15.1634C39.1946 14.1382 39.9773 13.2226 40.7225 12.3635C41.3332 11.6597 41.9018 11.0106 42.4405 10.404L39.8947 17.6923ZM21.5871 20.9862L20.3832 24.5452L20.0086 23.1358L19.8794 22.6491C20.4471 22.0967 21.0171 21.5419 21.5871 20.9862ZM25.0483 19.7115L26.1553 16.5285C26.5464 16.1475 26.9343 15.7692 27.3199 15.3939L28.3086 19.2588L26.7584 21.4319L25.9046 22.6342L25.0538 23.8391C24.5537 24.551 23.9624 25.3948 23.3656 26.2555C23.0706 26.6801 22.7636 27.1237 22.428 27.6101L25.0483 19.7115ZM36.786 6.3529C37.8727 5.35258 38.8193 4.50511 39.6399 3.79668C39.9274 3.54839 40.1991 3.31746 40.4565 3.10318C40.31 3.27912 40.1604 3.46014 40.0139 3.64067C39.8821 3.80254 39.7587 3.95385 39.6399 4.10026C39.4453 4.34004 39.2638 4.5654 39.0796 4.79778L38.6181 5.3787C38.4332 5.61133 38.2916 5.79174 38.1589 5.96255L37.2481 7.13249C36.6324 7.93155 36.0279 8.72412 35.4521 9.4885C35.1228 9.92587 34.7892 10.3711 34.4499 10.8255L34.4042 10.6293L34.228 9.8753L34.0124 8.94654C34.9828 8.0272 35.9103 7.15861 36.786 6.3529ZM43.1082 8.05844C42.1417 9.11459 41.1008 10.2874 39.8996 11.6726C39.1416 12.5469 38.3557 13.4659 37.4972 14.4826C36.941 15.141 36.3653 15.8281 35.7778 16.5333L35.2299 14.179C35.9525 13.0891 36.6841 11.9749 37.4287 10.83C38.018 9.92289 38.5942 9.028 39.0307 8.34937L40.6183 5.86299C40.7953 5.58583 40.972 5.3085 41.1487 5.03103C41.2277 4.90676 41.3073 4.78183 41.3876 4.65616C41.4724 4.67486 41.5543 4.69511 41.6327 4.71737C41.634 4.71768 41.6351 4.71799 41.6363 4.71829C41.6891 4.73222 41.7441 4.74892 41.8019 4.76898C42.0577 4.85356 42.28 4.96193 42.4618 5.09084C42.5442 5.1493 42.6225 5.21577 42.6943 5.28843C43.0623 5.66036 43.2487 6.20264 43.2487 6.89937C43.2487 7.19463 43.2016 7.58357 43.1082 8.05844ZM28.146 25.9127L25.8461 28.7934L25.5581 29.1488L25.417 29.3201C25.4009 29.3394 25.3829 29.3603 25.3645 29.3816L25.2698 29.492C25.0381 29.7623 24.8476 29.9834 24.67 30.1874C24.2656 30.652 23.8552 31.113 23.4512 31.5571C22.5558 32.5401 21.7256 33.403 20.9131 34.1953C20.5714 34.5284 20.2491 34.8334 19.9372 35.1183L20.0493 34.7807C20.6667 34.0888 21.2982 33.3537 21.9789 32.5339C22.5764 31.8153 23.188 31.0578 23.849 30.2178C24.4603 29.4411 25.0699 28.6495 25.6609 27.865C26.2029 27.1472 26.7801 26.3678 27.425 25.4817L27.4556 25.4394C27.7304 25.06 28.015 24.6678 28.2913 24.2804C28.5881 23.866 28.8897 23.4398 29.1484 23.0734C29.182 23.0259 29.2151 22.9788 29.2483 22.9323L29.5596 24.1495C29.1174 24.699 28.6494 25.2832 28.146 25.9127ZM22.3433 18.7498C21.4189 19.652 20.4897 20.5585 19.5635 21.4597L19.1443 19.8803C19.157 19.8629 19.1694 19.8456 19.182 19.828C19.4779 19.4177 19.7816 18.9933 20.0849 18.5661L20.5338 17.9337L20.9793 17.299L21.8668 16.0294C22.1051 15.6887 22.3441 15.3404 22.5751 15.0035L23.6219 13.473L24.4865 12.1877L24.6402 11.9584L22.3433 18.7498ZM26.0557 3.48547C26.0527 3.52057 26.0488 3.5558 26.0449 3.59028L26.0413 3.62385C26.0311 3.7107 26.018 3.80097 26.0011 3.90193C25.9858 3.99574 25.9682 4.08808 25.9493 4.17571C25.9327 4.2513 25.9109 4.3513 25.8863 4.45134C25.7945 4.81583 25.6739 5.17883 25.5277 5.53035C25.5087 5.5758 25.4897 5.62093 25.4697 5.66575C25.4537 5.70287 25.4372 5.73981 25.4203 5.77614C25.4196 5.77846 25.4187 5.7803 25.4173 5.78232C25.4127 5.79253 25.4081 5.80257 25.4031 5.81291C25.4028 5.81449 25.4019 5.81619 25.4012 5.81742C25.3976 5.82544 25.394 5.8335 25.3898 5.84169C25.3799 5.86317 25.3699 5.88451 25.3593 5.90585C25.3494 5.92653 25.3397 5.94681 25.3295 5.96706C25.3196 5.98743 25.3095 6.00769 25.299 6.0281C25.2855 6.05514 25.2717 6.08205 25.2577 6.10864C25.2571 6.11066 25.256 6.11267 25.255 6.11421C25.2445 6.13415 25.2345 6.15409 25.2236 6.17389C25.2212 6.17854 25.2191 6.18331 25.2161 6.18778C25.2086 6.20233 25.2007 6.21688 25.1925 6.23126C25.1925 6.23186 25.1922 6.23261 25.1914 6.23323C25.1895 6.23774 25.1872 6.24208 25.1842 6.24637C25.176 6.26232 25.1672 6.2784 25.1583 6.294C25.1573 6.29571 25.1564 6.29773 25.1551 6.29939C25.1453 6.3167 25.1354 6.33418 25.1256 6.35167C25.1256 6.35259 25.125 6.3529 25.1244 6.35382C25.1245 6.35412 25.1245 6.35412 25.1241 6.35443C25.1223 6.35816 25.1204 6.36187 25.1177 6.36556C25.1069 6.38506 25.0951 6.40482 25.0837 6.42446C25.0765 6.43729 25.0689 6.44995 25.0611 6.4628C25.0406 6.49741 25.0201 6.53208 24.9992 6.56577C24.7857 6.91265 24.5448 7.23634 24.283 7.52805C24.0053 7.83877 23.6967 8.12027 23.3653 8.36514C23.1949 8.49068 23.0152 8.6083 22.8324 8.71482C22.6426 8.82429 22.4482 8.92275 22.2558 9.00744C22.0519 9.09557 21.8465 9.17195 21.6453 9.23421C21.4316 9.29959 21.2186 9.35297 21.0127 9.39237C20.7955 9.43315 20.5789 9.463 20.3694 9.48096C20.1561 9.49871 19.9396 9.50677 19.7264 9.5049C19.515 9.50195 19.3009 9.4899 19.0912 9.46936C18.8946 9.44972 18.6913 9.42066 18.4704 9.38123C18.0821 9.30998 17.6819 9.2078 17.2811 9.07655C17.2339 9.06095 17.187 9.04549 17.1397 9.0294C17.0926 9.01319 17.0455 8.99681 16.9986 8.98011C16.9513 8.96324 16.9042 8.94623 16.8569 8.92875C16.8337 8.91994 16.8101 8.91131 16.7866 8.90232C16.763 8.89351 16.7393 8.8844 16.7157 8.87512C16.6747 8.85965 16.6334 8.84361 16.5924 8.82704C16.5649 8.81609 16.5374 8.80526 16.5095 8.79365C16.3888 8.7448 16.2684 8.69348 16.1471 8.63967C16.1409 8.63704 16.1349 8.63411 16.1288 8.63134C16.0923 8.61509 16.0556 8.59874 16.019 8.58188C15.9282 8.54077 15.8367 8.4976 15.7452 8.45309C15.7075 8.43516 15.6698 8.41675 15.6321 8.39805C15.5889 8.37675 15.5456 8.35523 15.5024 8.33328C15.3719 8.26746 15.2406 8.19837 15.1082 8.12646L15.0347 8.0861C14.975 8.05318 14.9131 8.01932 14.8538 7.98518L14.1507 7.58261C13.8498 7.41197 13.54 7.24222 13.2299 7.07869C12.926 6.91808 12.615 6.76331 12.3056 6.61892C11.9929 6.47222 11.6802 6.33835 11.3758 6.22165C11.2238 6.1632 11.0671 6.1065 10.9091 6.05286C10.7609 6.004 10.6032 5.95546 10.441 5.91C10.117 5.81926 9.80034 5.75064 9.50178 5.70611C9.19664 5.65836 8.87939 5.63285 8.55879 5.62974C8.40582 5.62864 8.24751 5.63285 8.08652 5.64332C7.93714 5.65384 7.78373 5.67023 7.61691 5.69328C7.58317 5.69805 7.54968 5.70318 7.51593 5.70857C7.50022 5.71121 7.48451 5.714 7.46914 5.71646C7.46817 5.71646 7.46741 5.71646 7.46679 5.71676C7.43927 5.72141 7.41211 5.72619 7.38447 5.731C7.38384 5.73131 7.38323 5.73131 7.3826 5.73131C7.34426 5.73841 7.30625 5.74551 7.26827 5.75327C7.22914 5.76098 7.19018 5.76905 7.15153 5.77737C7.11244 5.78587 7.0738 5.79454 7.03485 5.80397C7.00471 5.81107 6.97456 5.81803 6.94438 5.82574C6.94077 5.82636 6.93686 5.82745 6.93325 5.82868C6.92269 5.831 6.91205 5.83381 6.9015 5.83687C6.8979 5.83736 6.89429 5.83797 6.89068 5.83938C6.86086 5.84677 6.8313 5.8548 6.80146 5.86299C6.77195 5.87057 6.74274 5.87907 6.71337 5.88744C6.70927 5.88854 6.70552 5.88928 6.70156 5.89099C6.69168 5.89362 6.68179 5.89638 6.67205 5.89932C6.66216 5.90181 6.65241 5.90488 6.64253 5.90816C6.62588 5.91264 6.60941 5.91772 6.59275 5.92285C6.59115 5.92316 6.5891 5.92346 6.5871 5.92486C6.57343 5.92903 6.55896 5.93336 6.54516 5.93766C6.53119 5.94155 6.51703 5.94585 6.50291 5.95098C6.45576 5.96549 6.40884 5.98064 6.3617 5.99721C6.34615 6.00199 6.33075 6.00738 6.31552 6.01281C6.25222 6.03459 6.18895 6.05734 6.12565 6.0813C6.10868 6.08747 6.09154 6.09397 6.07444 6.10076C6.05133 6.10926 6.02809 6.11837 6.00472 6.12767C5.98995 6.13371 5.97534 6.13941 5.96042 6.14558C5.9306 6.1572 5.90059 6.16942 5.87071 6.18191C5.83212 6.19817 5.7933 6.21425 5.75496 6.23095C5.45453 6.36092 5.15094 6.50994 4.85265 6.67396C4.7236 6.7446 4.5833 6.82576 4.41088 6.92995L4.40727 6.93197C4.2945 7.00383 4.14718 7.09941 4.00645 7.20295C3.49708 7.56608 3.02842 8.0286 2.61192 8.57876C2.40962 8.84978 2.22789 9.13264 2.07145 9.41817C1.90733 9.71452 1.76083 10.0229 1.63656 10.3341C1.51137 10.6468 1.39989 10.9735 1.30515 11.3061C1.26041 11.4666 1.21736 11.6354 1.17778 11.8075C1.13918 11.9729 1.10334 12.1448 1.07145 12.3187C1.00739 12.6772 0.959801 13.0264 0.929662 13.3567C0.910958 13.5677 0.899478 13.7298 0.893195 13.8817C0.889589 13.967 0.885982 14.0556 0.883765 14.1445L0.882074 14.2753L0.882824 14.4191C0.883138 14.5171 0.802598 14.5974 0.702829 14.5977C0.615345 14.599 0.541213 14.5378 0.524872 14.454L0.510457 14.3793L0.474797 14.1736C0.458635 14.072 0.445901 13.9826 0.436145 13.901C0.412771 13.7087 0.395814 13.5294 0.384189 13.3527C0.359661 12.9771 0.354184 12.6053 0.368161 12.2471C0.374758 12.0613 0.386193 11.8749 0.402221 11.6929C0.418741 11.5125 0.440558 11.3258 0.467584 11.1384C0.526171 10.7371 0.599979 10.3765 0.692939 10.0345C0.740853 9.85427 0.796281 9.67092 0.857534 9.48915C0.918485 9.30613 0.985707 9.12585 1.05779 8.9529C1.20324 8.60229 1.37835 8.25353 1.57721 7.91687C1.78437 7.57056 2.01321 7.24795 2.2587 6.95607C2.38807 6.79872 2.52568 6.65127 2.65556 6.51551C2.77963 6.39076 2.92825 6.24484 3.08985 6.10522C3.24644 5.96675 3.41321 5.83767 3.55487 5.73069L3.60469 5.69359C3.66591 5.64814 3.72655 5.60283 3.78656 5.55941C3.81247 5.541 3.83807 5.52247 3.86398 5.50376C3.91567 5.46682 3.96954 5.428 4.02385 5.39135C4.11593 5.32783 4.20608 5.26709 4.2945 5.20973C4.32401 5.19027 4.35322 5.17126 4.38243 5.15298C4.43457 5.11928 4.48626 5.08682 4.53745 5.05544C4.55646 5.04387 4.57548 5.03226 4.59417 5.02068C4.6378 4.99408 4.68104 4.96828 4.72391 4.94352C4.75186 4.92714 4.77964 4.91092 4.80711 4.89515C4.83493 4.87937 4.86259 4.86391 4.88975 4.84878C4.90813 4.8384 4.92647 4.82837 4.94455 4.81877C4.9697 4.80457 4.99499 4.79094 5.01993 4.77767C5.16992 4.6959 5.33909 4.61132 5.55079 4.51164C5.7314 4.42829 5.91818 4.34915 6.10538 4.2765C6.47669 4.1329 6.86994 4.01464 7.27343 3.92481C7.47101 3.88199 7.67581 3.84549 7.88141 3.81674C8.08857 3.78909 8.29665 3.76915 8.49914 3.75675C8.9089 3.73449 9.32478 3.74304 9.73548 3.78199C10.1189 3.81796 10.5241 3.88383 10.9379 3.97708C11.133 4.02221 11.329 4.07261 11.5194 4.12717C11.7134 4.18312 11.9045 4.24294 12.086 4.30384C12.4426 4.42584 12.7991 4.56277 13.1757 4.72311C13.506 4.86456 13.8456 5.02192 14.2147 5.20385C14.5824 5.38427 14.9414 5.57549 15.2127 5.72189C15.3674 5.80537 15.5332 5.89577 15.7008 5.99069L15.7922 6.04174L15.9294 6.11837C15.9799 6.14668 16.0308 6.1742 16.0812 6.20124C16.105 6.21395 16.1288 6.22643 16.1539 6.24037C16.8055 6.58462 17.3991 6.8414 17.9693 7.02518C18.1116 7.07062 18.261 7.11483 18.4275 7.16001C18.5949 7.20484 18.7602 7.24038 18.8853 7.2668C19.0349 7.29743 19.1883 7.32354 19.3403 7.34397C19.493 7.36513 19.645 7.38029 19.7915 7.38848C19.9447 7.39835 20.0949 7.40159 20.2376 7.39835C20.3947 7.39558 20.5382 7.38677 20.6764 7.37131C20.8302 7.35522 20.9719 7.33314 21.1082 7.30483C21.2605 7.27455 21.3995 7.23976 21.5326 7.19861C22.0881 7.03061 22.6276 6.74973 23.1362 6.36354C23.19 6.32293 23.2437 6.28103 23.2971 6.23743C23.3053 6.23095 23.3131 6.22442 23.321 6.21793C23.3457 6.19817 23.3702 6.17775 23.3951 6.15671C23.4076 6.14651 23.4199 6.13586 23.4325 6.12521C23.4449 6.11482 23.457 6.10418 23.4694 6.09317C23.4803 6.08423 23.4911 6.07495 23.5019 6.06522C23.5183 6.05097 23.5344 6.03691 23.5508 6.02193C23.5668 6.00768 23.583 5.99318 23.5993 5.97849C23.6806 5.90488 23.7615 5.82837 23.8418 5.74831C23.852 5.73841 23.8621 5.72838 23.8723 5.718C23.8933 5.69744 23.9139 5.6764 23.9346 5.65555C23.9634 5.62601 23.9922 5.59653 24.0208 5.5662C24.0466 5.53898 24.0722 5.51195 24.0978 5.48413C24.1063 5.47514 24.1141 5.46651 24.122 5.45771C24.1421 5.4365 24.1614 5.41515 24.1807 5.39355C24.201 5.37129 24.2211 5.34903 24.2407 5.32646C24.2613 5.30354 24.2816 5.28037 24.302 5.25688C24.3273 5.22765 24.3524 5.19846 24.3777 5.16862C24.4022 5.14 24.4269 5.11065 24.451 5.08094C24.4796 5.0468 24.5078 5.01232 24.536 4.9774C24.746 4.71675 24.9525 4.43649 25.1489 4.14478C25.1986 4.07199 25.2472 4.00039 25.296 3.9245L25.4363 3.70361C25.4691 3.65101 25.5015 3.59769 25.534 3.54436L25.6752 3.30769C25.6835 3.29349 25.692 3.27912 25.6992 3.26798L25.7303 3.22206C25.7863 3.13859 25.9007 3.11616 25.9855 3.17119C26.0407 3.20708 26.0717 3.26965 26.0675 3.33477L26.0557 3.48547ZM24.3914 8.36576L23.4531 9.5938L19.7071 14.5066L18.2305 16.4426L17.9437 15.3639L16.2853 9.12199C16.285 9.12077 16.2847 9.11937 16.2844 9.11797C16.2808 9.10548 16.2772 9.09294 16.2733 9.08072C16.5725 9.20565 16.8694 9.31568 17.1673 9.41322C17.5839 9.54928 18.0001 9.65624 18.4052 9.72999C18.6362 9.77171 18.8486 9.80155 19.0551 9.82259C19.2753 9.84375 19.4996 9.85658 19.7221 9.8597C19.9472 9.86168 20.1754 9.85317 20.4002 9.8345C20.6224 9.81549 20.8511 9.78394 21.0812 9.74064C21.3001 9.69875 21.526 9.64235 21.7531 9.57295C21.9671 9.50647 22.1855 9.42545 22.4021 9.33163C22.6072 9.24135 22.8134 9.13716 23.0149 9.0209C23.21 8.90745 23.4003 8.78222 23.5815 8.64913C23.9326 8.38924 24.2597 8.09136 24.5537 7.76271C24.7867 7.50285 25.0043 7.21873 25.2013 6.91681C25.2278 7.00989 25.2541 7.10664 25.28 7.20681L24.3914 8.36576ZM54.5526 1.83512C54.5507 1.71484 54.5369 1.60385 54.5113 1.49671C54.4802 1.36656 54.4326 1.24567 54.3692 1.13729C54.296 1.01443 54.202 0.90484 54.0975 0.820575C53.9935 0.7363 53.8732 0.667071 53.7494 0.620055C53.5491 0.54354 53.3384 0.510018 53.0857 0.512961C52.908 0.516202 52.7277 0.538282 52.5171 0.583413C52.2087 0.651605 51.8972 0.756418 51.5361 0.913471C51.2583 1.0345 50.9704 1.17998 50.6567 1.35776C50.4179 1.49394 50.1757 1.64267 49.9269 1.80541H43.241C43.2979 1.72255 43.3543 1.64188 43.4097 1.5638C43.4743 1.47291 43.5429 1.38063 43.615 1.28773C43.6304 1.26701 43.6464 1.24738 43.6615 1.22866L43.7089 1.17257C43.7149 1.16543 43.7201 1.15943 43.7251 1.1543C43.7834 1.14133 43.8394 1.11907 43.8902 1.08848C44.1443 0.934813 44.2245 0.606463 44.0689 0.356348C43.9462 0.15972 43.746 0.0357153 43.5044 0.00714204C43.1 -0.0406233 42.4612 0.108064 40.3525 1.80541H39.8082C39.7154 1.80541 39.6399 1.87934 39.6399 1.9707V2.39133C38.7092 3.17119 37.5439 4.19938 36.0745 5.55091C35.3309 6.23494 34.5495 6.96458 33.7354 7.73256C33.7033 7.56408 33.6778 7.39063 33.6593 7.21487C33.6299 6.93894 33.6148 6.63132 33.6148 6.30001C33.6148 5.68166 33.7819 5.25193 34.1255 4.98651C34.4796 4.71382 35.1044 4.55397 35.9824 4.51084C36.0715 4.50638 36.1419 4.43385 36.1419 4.34573V1.9707C36.1419 1.87934 36.0665 1.80541 35.9739 1.80541H31.3485C31.4815 1.64635 31.6048 1.50814 31.7224 1.3848C31.8066 1.29732 31.8866 1.22095 31.961 1.1568C31.9963 1.12617 32.0331 1.09698 32.0672 1.07253C32.0868 1.05833 32.1071 1.04642 32.1223 1.03743C32.1314 1.03204 32.1389 1.02709 32.1452 1.02323L32.2415 0.958778C32.4215 0.838059 32.509 0.617112 32.4598 0.408578C32.394 0.127696 32.1079 -0.0480642 31.8217 0.0166996C31.6863 0.0476319 31.5894 0.0916712 31.5077 0.13129C31.4369 0.166522 31.3657 0.20657 31.2845 0.258018C31.1407 0.349073 31.0191 0.442278 30.9187 0.521592C30.6786 0.711893 30.4685 0.906063 30.2948 1.071C30.122 1.23515 29.9411 1.41648 29.7254 1.64158C29.672 1.69767 29.6202 1.75227 29.5701 1.80541H22.0785C21.9858 1.80541 21.9108 1.87934 21.9108 1.9707V4.34573C21.9108 4.43709 21.9858 4.51084 22.0785 4.51084H22.4394C22.9153 4.51084 23.3288 4.57811 23.6687 4.71027C23.8267 4.77162 23.972 4.848 24.1035 4.93844C23.7172 5.39386 23.3187 5.77815 22.9166 6.08252C22.4416 6.44272 21.9406 6.7038 21.4258 6.8598C21.3037 6.89749 21.1763 6.92904 21.035 6.95748C20.9095 6.9836 20.7798 7.00353 20.6368 7.01869C20.5093 7.03294 20.3763 7.04095 20.2304 7.04359C20.0973 7.04683 19.9577 7.04359 19.8135 7.03429C19.676 7.02644 19.5337 7.01251 19.3901 6.99227C19.2451 6.97295 19.1003 6.94836 18.9597 6.91944C18.8394 6.89412 18.6808 6.86011 18.5228 6.81773C18.3623 6.77414 18.2177 6.73163 18.0815 6.68803C17.5318 6.51056 16.9569 6.26201 16.3263 5.92872C16.3022 5.9154 16.2778 5.90261 16.2536 5.88959C16.2054 5.86378 16.1575 5.83797 16.1087 5.81027L15.9205 5.7052C16.0334 5.48474 16.1959 5.28996 16.4096 5.11806C16.6014 4.96346 16.8209 4.8384 17.0622 4.7455C17.4181 4.60729 17.8402 4.52846 18.3168 4.51084C18.4066 4.50773 18.4776 4.43569 18.4787 4.34744L18.5013 1.97237C18.5019 1.92803 18.4842 1.88583 18.4528 1.85458C18.4212 1.82321 18.3784 1.80541 18.3334 1.80541H3.22021C3.1753 1.80541 3.13242 1.82321 3.10098 1.85458C3.06942 1.88583 3.05184 1.92803 3.05245 1.97237L3.07508 4.34744C3.07601 4.43649 3.1484 4.50913 3.23923 4.51084C3.68622 4.52136 4.10053 4.57549 4.48108 4.67254C4.26872 4.79913 4.04946 4.94028 3.81795 5.09965C3.76097 5.13878 3.70536 5.17883 3.65117 5.21743C3.62633 5.23509 3.60109 5.25315 3.57419 5.27248C3.51124 5.3184 3.44967 5.36415 3.38748 5.41068L3.33627 5.44841C3.18847 5.56032 3.01474 5.6945 2.85016 5.83967C2.68084 5.98639 2.52568 6.13879 2.39658 6.2685L2.3944 6.27095C2.25932 6.41227 2.11543 6.56608 1.97942 6.73163C1.72342 7.03649 1.48359 7.37455 1.26623 7.73751C1.0581 8.08903 0.875925 8.45278 0.724198 8.81841C0.649136 8.99908 0.578609 9.18737 0.515173 9.37817C0.451859 9.56658 0.394078 9.75721 0.344608 9.94361C0.247829 10.2984 0.171209 10.6726 0.110561 11.0883C0.0827854 11.2822 0.0601726 11.4751 0.0430254 11.6615C0.0263822 11.85 0.0146222 12.0429 0.00803663 12.2341C-0.00674737 12.6039 -0.00109138 12.9877 0.0243326 13.3751C0.036619 13.5588 0.0538895 13.7446 0.0782047 13.9429C0.0882623 14.0287 0.101792 14.122 0.118894 14.2298L0.14275 14.3725L0.170896 14.5203C0.219425 14.7712 0.442608 14.9525 0.702515 14.9525H0.704565C1.00268 14.9515 1.24425 14.7114 1.24331 14.4163L1.24265 14.2768L1.24425 14.151C1.2463 14.0667 1.2499 13.98 1.25351 13.8961C1.25929 13.75 1.27047 13.5933 1.28886 13.3881C1.31806 13.0678 1.36423 12.7288 1.42656 12.381C1.45706 12.2133 1.49142 12.0471 1.52944 11.8865C1.56778 11.7191 1.60909 11.5555 1.65259 11.4017C1.74368 11.0809 1.85129 10.7654 1.97189 10.4641C2.09077 10.1664 2.23073 9.87158 2.38874 9.58701C2.53731 9.31524 2.71023 9.0464 2.90167 8.78962C3.29558 8.2693 3.73834 7.83229 4.2202 7.48865C4.35322 7.39063 4.49347 7.29958 4.60107 7.23126C4.76816 7.1303 4.90386 7.05164 5.02811 6.9839C5.31648 6.82545 5.61018 6.68124 5.90028 6.55587C6.17355 6.43699 6.44855 6.33602 6.72418 6.25395C7.1839 6.93845 7.56589 7.86678 7.86302 9.028L11.5339 22.8129L12.0044 24.5798L12.1217 25.0193C12.2483 24.8515 12.375 24.684 12.5016 24.5171C13.3262 23.4276 14.174 22.3252 14.994 21.259C15.4129 20.7146 15.8318 20.17 16.2497 19.6246L18.1237 17.1736L18.3469 16.8807L19.9954 14.7194L23.7416 9.80712L24.6793 8.57942L25.3888 7.65373L25.6202 7.35181C25.8027 7.11286 25.9899 6.86996 26.1708 6.63549C26.3015 6.46621 26.4323 6.29646 26.5621 6.12718L27.9789 4.2907L28.9717 3.01585L29.1946 2.75583C29.2984 2.63711 29.3786 2.54606 29.4551 2.46104C29.6144 2.28187 29.789 2.09357 29.9883 1.88473C30.0142 1.8577 30.0397 1.83123 30.0644 1.80541C30.2429 1.62054 30.3973 1.46674 30.5451 1.32652C30.7133 1.16714 30.9159 0.979767 31.1449 0.797999C31.2376 0.724427 31.3497 0.638454 31.4791 0.556383C31.5508 0.51155 31.6094 0.478159 31.6684 0.448936C31.7336 0.417386 31.8053 0.384778 31.9034 0.362389C31.9951 0.341665 32.0874 0.398062 32.1088 0.488676C32.1245 0.555766 32.0964 0.626714 32.0386 0.665186L31.9442 0.728418L31.9348 0.734161C31.9167 0.74481 31.8866 0.7629 31.8548 0.785774C31.8122 0.816408 31.7667 0.852555 31.7231 0.890421C31.6407 0.961402 31.5526 1.04532 31.4606 1.14133C31.3062 1.30254 31.1446 1.48715 30.9652 1.70621C30.9389 1.73912 30.9118 1.77202 30.885 1.80541C30.6262 2.12807 30.3569 2.48576 30.046 2.92125C29.966 3.03329 29.8942 3.13548 29.8258 3.2343L29.7183 3.39056L29.0009 4.54008L28.8091 4.84971L28.3981 5.50516C28.1349 5.92486 27.8525 6.37345 27.5715 6.81217C27.4918 6.93675 27.4126 7.0612 27.3332 7.18582C27.1386 7.49094 26.9373 7.80649 26.7372 8.11457L25.8947 9.41199L25.0867 10.6391L25.0433 10.7045L24.6166 11.3494L24.1859 11.9924L23.3219 13.2759L22.4485 14.5538L22.2762 14.8052C22.0458 15.1413 21.8071 15.4888 21.57 15.8284L20.6827 17.0977L20.2376 17.7311L19.7897 18.363C19.5337 18.7233 19.277 19.082 19.0249 19.432C18.9791 19.4958 18.9332 19.5597 18.8877 19.6229C18.6031 20.0191 18.3056 20.4294 17.9788 20.8773C16.8999 22.3555 15.6122 24.0994 14.2385 25.8237C13.7755 26.4058 13.2954 26.9965 12.8051 27.5859C12.6277 27.7991 12.4488 28.0125 12.2692 28.225C11.872 28.6937 11.4679 29.1616 11.0683 29.6159L11.3293 29.8604C11.872 29.351 12.4272 28.8265 12.9926 28.2897C15.1164 26.2733 17.3816 24.0816 19.6687 21.8562C20.4752 21.0717 21.2844 20.2827 22.0911 19.4955C22.5137 19.0829 22.9359 18.6706 23.3568 18.2601L23.3836 18.2342C24.4999 17.1446 25.6015 16.0691 26.6811 15.0181C26.8263 14.8765 26.9711 14.7355 27.1157 14.5953C29.4974 12.2776 31.7631 10.0879 33.8245 8.1396C34.6954 7.3175 35.5296 6.53777 36.3206 5.80997C37.6676 4.57066 38.7568 3.6065 39.6399 2.85831C40.1284 2.4448 40.554 2.09699 40.9258 1.80541C42.5638 0.520358 43.1548 0.323564 43.4615 0.359281C43.5928 0.375188 43.6968 0.438111 43.7614 0.5417C43.8132 0.625181 43.7863 0.7349 43.7014 0.786082C43.6781 0.800325 43.6522 0.808648 43.6247 0.811282L43.568 0.816408L43.4821 0.888139L43.4727 0.899273C43.4683 0.904046 43.4645 0.908389 43.4603 0.913163C43.4519 0.922279 43.4432 0.932178 43.432 0.945153L43.3805 1.00654C43.3629 1.02832 43.3437 1.05167 43.3267 1.07424C43.2534 1.16933 43.1817 1.26547 43.1141 1.36082C43.0141 1.50197 42.9112 1.65069 42.8064 1.80541C42.7716 1.85708 42.7365 1.90931 42.7015 1.96185L42.2977 2.57419L41.8991 3.1913C41.6005 3.65413 41.2998 4.12575 41.0054 4.58784C40.9511 4.67315 40.8969 4.75804 40.8432 4.84261C40.6668 5.11977 40.4903 5.3971 40.3133 5.67426L38.726 8.16003C38.2897 8.83818 37.7139 9.73231 37.125 10.6386C36.4462 11.6826 35.7783 12.7007 35.118 13.698C33.5669 16.0413 32.0577 18.2707 30.5474 20.4491C30.2655 20.857 29.9795 21.2658 29.7025 21.6617C29.5209 21.9219 29.3324 22.191 29.1316 22.4758C29.0411 22.6039 28.9484 22.7352 28.8526 22.8704C28.5938 23.2368 28.2932 23.6622 27.9964 24.0762C27.7207 24.463 27.4369 24.8545 27.1622 25.2333L27.1317 25.2753C26.4881 26.1594 25.9122 26.9373 25.3711 27.6535C24.7818 28.4361 24.1739 29.2258 23.5638 30.0007C22.9048 30.8378 22.2953 31.593 21.6996 32.3091C21.2255 32.8808 20.7752 33.4107 20.3367 33.9137C20.1429 34.1359 19.9515 34.3526 19.7614 34.5655C19.1165 35.2885 18.5141 35.9317 17.9258 36.5236C17.8542 36.5958 17.7828 36.6675 17.7115 36.7385C17.4256 37.0188 17.191 37.2428 16.972 37.4434L17.1903 37.7237C17.5688 37.4917 17.9678 37.2146 18.4096 36.8766C18.5571 36.7632 18.7061 36.6459 18.8572 36.5236C19.1322 36.301 19.4146 36.062 19.7107 35.8014C19.7477 35.7692 19.7846 35.7363 19.822 35.7031C20.2491 35.3237 20.689 34.913 21.1668 34.4475C21.9844 33.65 22.8192 32.7824 23.7196 31.7941C24.1256 31.3478 24.5376 30.885 24.9438 30.4181C25.122 30.2136 25.3131 29.9919 25.5451 29.7208L25.6392 29.6115C25.6595 29.5881 25.6795 29.5649 25.6962 29.5445L25.7676 29.4587L26.1289 29.0132L28.4292 26.1321C28.8677 25.5836 29.2799 25.0697 29.6707 24.5829C30.0441 24.1181 30.3984 23.6778 30.7389 23.2558C32.4405 21.1476 33.9674 19.2778 35.4072 17.5408C35.5652 17.3497 35.7229 17.1597 35.8798 16.9709C36.5275 16.1917 37.163 15.4333 37.7744 14.7094C38.6318 13.6939 39.4169 12.7758 40.174 11.903C41.1978 10.7223 42.105 9.69612 42.9483 8.76552C43.7149 7.91931 44.4293 7.15226 45.1311 6.41998C46.0684 5.45043 46.9481 4.61378 47.8201 3.86284C48.3348 3.42131 48.8099 3.03995 49.2734 2.6971C49.7405 2.35128 50.176 2.05773 50.5975 1.80541C50.6778 1.75704 50.7577 1.71019 50.8371 1.66506C51.1395 1.49347 51.4158 1.3539 51.6819 1.23778C52.0208 1.09032 52.3112 0.99261 52.5947 0.929852C52.7808 0.890421 52.9388 0.870347 53.0911 0.867723C53.2961 0.864604 53.4636 0.891204 53.6192 0.950588C53.7074 0.984585 53.7937 1.03419 53.8686 1.0948C53.9407 1.15294 54.0064 1.22976 54.0574 1.31569C54.1026 1.39316 54.1375 1.48129 54.1604 1.57804C54.1804 1.6606 54.1904 1.74653 54.1922 1.841V1.84131C54.1948 1.99713 54.1751 2.1554 54.1303 2.34063C54.1125 2.4142 54.0906 2.49023 54.0627 2.57388C54.0377 2.64807 54.0097 2.72384 53.9784 2.79956C53.8686 3.06795 53.729 3.33521 53.5393 3.64006C53.2398 4.11774 52.8652 4.60282 52.3947 5.12283C52.3286 5.19615 52.2141 5.20263 52.1402 5.13738C52.104 5.10614 52.0828 5.06257 52.0802 5.01512C52.0772 4.96963 52.092 4.92608 52.1215 4.89129L52.1263 4.88603C52.5829 4.38162 52.9443 3.91323 53.2322 3.45426C53.4088 3.17045 53.5435 2.91287 53.6439 2.66788C53.7031 2.52288 53.7489 2.3845 53.7799 2.25668C53.8169 2.10611 53.8342 1.96869 53.8315 1.85012C53.8306 1.7116 53.8009 1.58838 53.7455 1.49394L53.7437 1.49132C53.6848 1.39408 53.6032 1.32743 53.4859 1.28064C53.3806 1.23966 53.2464 1.21985 53.0987 1.22266C52.9732 1.22419 52.8297 1.24259 52.6727 1.27642C52.4161 1.33256 52.1399 1.42607 51.8278 1.56227C51.6407 1.64421 51.448 1.73803 51.2434 1.84748C51.1697 1.88706 51.0943 1.92833 51.0169 1.97237C50.5342 2.24769 50.0348 2.57774 49.4904 2.98062C49.0357 3.31681 48.5671 3.69247 48.0571 4.1301C47.1945 4.87319 46.3227 5.70226 45.3913 6.66516C44.5446 7.54878 43.6814 8.48122 42.7311 9.54047C42.0273 10.3248 41.2757 11.1786 40.4482 12.1332C39.702 12.9933 38.9183 13.91 38.0518 14.9364C37.3729 15.7397 36.678 16.5699 35.9814 17.4094C35.8831 17.5278 35.7848 17.6465 35.6864 17.7652C34.2533 19.4942 32.7273 21.3626 31.0213 23.4765C30.6177 23.9768 30.2033 24.4916 29.7815 25.0171C29.4298 25.4556 29.073 25.9014 28.7127 26.352L26.4116 29.2332L26.1206 29.5935L26.0479 29.6826L25.8211 29.9497C25.584 30.2263 25.3922 30.4486 25.2176 30.649C24.8132 31.1139 24.3997 31.5787 23.9883 32.0308C23.0827 33.0247 22.2428 33.8975 21.4204 34.6995C20.9427 35.1653 20.4988 35.5794 20.0636 35.9662C19.555 36.4179 19.0864 36.8075 18.6314 37.1565C18.0548 37.5972 17.5602 37.9304 17.0749 38.2052C16.7705 38.377 16.4892 38.5121 16.2162 38.6181C15.8517 38.7576 15.5574 38.8294 15.2624 38.8514C15.2143 38.8548 15.1674 38.8401 15.1311 38.8092C15.0944 38.7781 15.0724 38.7353 15.0688 38.6882C15.066 38.6528 15.0741 38.6175 15.0917 38.5869L15.1152 38.5455V38.5089C15.1209 38.47 15.139 38.4343 15.1664 38.4073L15.1767 38.3969C15.3278 38.2476 15.4844 38.0751 15.6554 37.8707C15.8016 37.6991 15.9436 37.5178 16.0812 37.3426L16.1107 37.3046C16.2986 37.0617 16.4925 36.8036 16.6976 36.5236C16.7898 36.3978 16.8842 36.2678 16.9811 36.1327C17.2395 35.7765 17.4964 35.4097 17.7444 35.0549L17.828 34.9356C18.1142 34.5272 18.3983 34.1158 18.6651 33.729L21.9904 28.8781C22.0012 28.8623 22.012 28.8464 22.0232 28.8308C22.6524 27.9149 23.1744 27.1591 23.6635 26.4554C24.2597 25.5955 24.8506 24.7523 25.3502 24.0409L26.2002 22.837L27.0537 21.6356L28.425 19.7132L28.7667 19.234C30.9588 16.1716 32.8305 13.6004 34.5564 11.283C34.9585 10.7422 35.3532 10.2159 35.7419 9.69967C36.3167 8.93633 36.9205 8.14517 37.5349 7.34783L38.445 6.17806C38.5771 6.00804 38.718 5.82868 38.9022 5.59713L39.3637 5.01648C39.4991 4.84598 39.6329 4.67903 39.7717 4.50712C39.936 4.30384 40.107 4.09347 40.2955 3.86249C40.618 3.46491 40.9547 3.06453 41.245 2.72029C41.3978 2.53847 41.557 2.35514 41.711 2.17784L41.7298 2.15651C41.795 2.08166 41.8601 2.00673 41.9261 1.93267L42.0384 1.80541L43.064 0.646347L41.6816 1.67418C41.6238 1.71699 41.5655 1.7609 41.5069 1.80541C41.3751 1.90545 41.241 2.0087 41.1067 2.11474C40.6717 2.45732 40.1845 2.85972 39.6399 3.32531C38.762 4.07677 37.7352 4.99379 36.5399 6.09397C35.71 6.85778 34.8336 7.67739 33.9183 8.54323C31.8545 10.4958 29.5924 12.6833 27.2177 14.9946C26.9523 15.2523 26.6863 15.5117 26.4185 15.7729C25.5032 16.6646 24.5731 17.5731 23.6323 18.491L23.6243 18.4991C23.0306 19.0784 22.4347 19.66 21.8387 20.2412C21.1501 20.9132 20.4608 21.5849 19.7743 22.2527C17.4823 24.4823 15.2189 26.6706 13.0974 28.6836C11.6268 30.0788 10.2244 31.3894 8.92823 32.5707C7.07491 34.2597 5.5186 35.6088 4.30345 36.5802L4.30077 36.5824L4.41715 36.7175L4.53384 36.8529L4.53621 36.8514C5.75701 35.8753 7.3168 34.523 9.17305 32.831C10.4283 31.6868 11.7825 30.4221 13.202 29.0769L13.4858 30.144L14.9463 36.4001C14.9656 36.4726 15.0325 36.5236 15.1085 36.5236H16.2519C16.1044 36.7226 15.9629 36.9101 15.8245 37.0888L15.7957 37.1259C15.6604 37.2984 15.5205 37.4768 15.3782 37.6442C15.2133 37.8407 15.0639 38.0052 14.9213 38.1465L14.9108 38.1565C14.8322 38.2346 14.7798 38.3355 14.7608 38.4442C14.7198 38.5282 14.702 38.6208 14.7093 38.7149C14.7201 38.8568 14.7867 38.9859 14.8963 39.0785C14.9954 39.1621 15.1186 39.2069 15.2478 39.2069C15.2618 39.2069 15.2756 39.2063 15.2898 39.2052C15.6218 39.1805 15.9478 39.1014 16.348 38.9488C16.6379 38.8358 16.9343 38.6934 17.2542 38.513C17.7547 38.2296 18.2627 37.8879 18.8525 37.4366C19.3147 37.0822 19.79 36.6872 20.3051 36.2298C20.7443 35.8391 21.1924 35.4211 21.674 34.9516C22.5016 34.1447 23.3463 33.2665 24.2567 32.2674C24.6697 31.8137 25.0852 31.3469 25.4914 30.8801C25.6667 30.6784 25.8591 30.4555 26.0967 30.1783L26.3274 29.9066L26.6945 29.4533L28.9962 26.5711C29.2974 26.1939 29.5971 25.8204 29.8925 25.4512L29.9151 25.5395L30.2863 26.992L30.5233 27.9152L32.4945 36.3986C32.5132 36.472 32.5804 36.5236 32.6574 36.5236H36.4468C36.5179 36.5236 36.5812 36.4794 36.6051 36.4136L38.7031 29.8503C38.7194 29.8052 38.7152 29.7549 38.6908 29.7134C38.2071 28.8739 37.375 28.3001 36.4081 28.1381L32.6202 27.5055L36.4081 26.8723C37.7686 26.645 38.8377 25.5925 39.0687 24.2535L39.7117 20.5252L40.3549 24.2526C40.3594 24.2804 40.3647 24.3074 40.3698 24.335C40.3843 24.4081 40.4466 24.4627 40.5223 24.4684C40.5974 24.474 40.6674 24.4294 40.693 24.3591L43.9652 15.3308L44.5428 13.7358L45.7855 10.3075C46.4373 8.52995 47.2112 7.15195 48.086 6.21162C48.9503 5.28194 49.9845 4.70905 51.1604 4.5087C51.2412 4.49476 51.2998 4.42615 51.2998 4.34573V2.22236C51.5397 2.08986 51.7609 1.97933 51.974 1.88644C52.2636 1.75998 52.5181 1.67387 52.7507 1.62286C52.8839 1.59412 53.0024 1.57882 53.105 1.57742C53.2036 1.5751 53.2941 1.58732 53.3522 1.61002C53.4047 1.63105 53.4201 1.64977 53.4337 1.67185C53.4433 1.68873 53.4705 1.74622 53.4711 1.85489C53.4731 1.94551 53.459 2.05261 53.4291 2.17412C53.4023 2.28511 53.3619 2.40675 53.3095 2.53506C53.2168 2.76187 53.091 3.00192 52.925 3.26829C52.652 3.7039 52.3079 4.1502 51.8733 4.63236L51.8105 4.67254V4.70905C51.7448 4.80488 51.7131 4.91833 51.72 5.03581C51.7285 5.17774 51.7924 5.30806 51.9005 5.40266C52.123 5.59744 52.4653 5.57812 52.6638 5.35907C53.1487 4.82328 53.5353 4.32194 53.8465 3.82617C54.0472 3.50356 54.1954 3.21926 54.3128 2.9325C54.3469 2.84964 54.3779 2.76603 54.4051 2.68457C54.4362 2.5915 54.4612 2.50557 54.4808 2.4227C54.5297 2.22158 54.5531 2.04472 54.5531 1.86988C54.5531 1.85831 54.5531 1.8467 54.5526 1.83512Z" fill="#60676B"/>
</svg>
