<svg width="14" height="13" viewBox="0 0 14 13" fill="none" xmlns="http://www.w3.org/2000/svg">
<path d="M7.57235 1.5239L6.99796 2.08728L6.42176 1.52339C4.95272 0.0856343 2.57087 0.0856343 1.10181 1.52339C-0.367269 2.96115 -0.367269 5.29221 1.10181 6.72999L6.62752 12.1379C6.83251 12.3385 7.16488 12.3385 7.36987 12.1379L12.8998 6.72897C14.3656 5.28646 14.3681 2.96192 12.8988 1.5239C11.4271 0.0835247 9.0441 0.0835247 7.57235 1.5239ZM12.1554 6.00449L6.99866 11.0482L1.84413 6.00347C0.785024 4.96693 0.785024 3.28642 1.84413 2.24989C2.90323 1.21336 4.62037 1.21336 5.67948 2.24989L6.62948 3.17967C6.83797 3.3837 7.1772 3.37972 7.38058 3.17087L8.3147 2.2504C9.37647 1.21126 11.0947 1.21126 12.1565 2.2504C13.2159 3.28718 13.2141 4.96275 12.1554 6.00449Z" fill="#60676B"/>
</svg>
