<svg width="10" height="10" viewBox="0 0 10 10" fill="none" xmlns="http://www.w3.org/2000/svg">
<path d="M7.07005 4.68868L8.54619 4.99999L7.07005 5.31129L7.07001 5.3113C6.18732 5.49757 5.49747 6.18724 5.31131 7.07003C5.31131 7.07004 5.31131 7.07004 5.31131 7.07004L5 8.54618L4.68869 7.07004C4.68869 7.07004 4.68869 7.07004 4.68869 7.07003C4.50253 6.18724 3.81268 5.49757 2.92999 5.3113L2.92995 5.31129L1.45381 4.99999L2.92995 4.68868C2.92995 4.68868 2.92995 4.68868 2.92995 4.68868C3.81269 4.50253 4.50254 3.81281 4.68869 2.92984C4.68869 2.92984 4.68869 2.92983 4.6887 2.92982L5 1.45376L5.31131 2.92982C5.31131 2.92983 5.31131 2.92984 5.31131 2.92984C5.49747 3.81282 6.18731 4.50253 7.07005 4.68868C7.07005 4.68868 7.07005 4.68868 7.07005 4.68868Z" fill="#F0F0F0" stroke="#60676B" stroke-width="0.6"/>
</svg>
