<svg width="12" height="15" viewBox="0 0 12 15" fill="none" xmlns="http://www.w3.org/2000/svg">
<path d="M10.2 8.5305C11.1941 8.5305 12 9.30383 12 10.2579V10.6693C12 12.7294 9.4737 14.2884 6 14.2884C2.52632 14.2884 0 12.8105 0 10.6693V10.2579C0 9.30383 0.80589 8.5305 1.8 8.5305H10.2ZM10.2 9.39417H1.8C1.33218 9.39417 0.94773 9.73671 0.904122 10.1747L0.9 10.2579V10.6693C0.9 12.2092 2.93327 13.4247 6 13.4247C8.9556 13.4247 11.0129 12.2127 11.0973 10.7622L11.1 10.6693V10.2579C11.1 9.80891 10.7431 9.44001 10.2867 9.39815L10.2 9.39417ZM6 0.469498C7.98822 0.469498 9.6 2.01622 9.6 3.92421C9.6 5.83219 7.98822 7.37893 6 7.37893C4.01178 7.37893 2.4 5.83219 2.4 3.92421C2.4 2.01622 4.01178 0.469498 6 0.469498ZM6 1.33318C4.50882 1.33318 3.3 2.49322 3.3 3.92421C3.3 5.35521 4.50882 6.51525 6 6.51525C7.49118 6.51525 8.7 5.35521 8.7 3.92421C8.7 2.49322 7.49118 1.33318 6 1.33318Z" fill="#60676B"/>
</svg>
