<svg width="18" height="14" viewBox="0 0 18 14" fill="none" xmlns="http://www.w3.org/2000/svg">
<path d="M0 1.25024C0 0.836034 0.33579 0.500244 0.75 0.500244H17.25C17.6642 0.500244 18 0.836034 18 1.25024C18 1.66445 17.6642 2.00024 17.25 2.00024H0.75C0.33579 2.00024 0 1.66445 0 1.25024ZM0 7.25024C0 6.83603 0.33579 6.50024 0.75 6.50024H17.25C17.6642 6.50024 18 6.83603 18 7.25024C18 7.66445 17.6642 8.00024 17.25 8.00024H0.75C0.33579 8.00024 0 7.66445 0 7.25024ZM0 13.2503C0 12.836 0.33579 12.5003 0.75 12.5003H17.25C17.6642 12.5003 18 12.836 18 13.2503C18 13.6644 17.6642 14.0003 17.25 14.0003H0.75C0.33579 14.0003 0 13.6644 0 13.2503Z" fill="#60676B"/>
</svg>
