<svg width="12" height="15" viewBox="0 0 12 15" fill="none" xmlns="http://www.w3.org/2000/svg">
<path d="M10.2 8.37193C11.1941 8.37193 12 9.17034 12 10.1553V10.5801C12 12.7069 9.4737 14.3165 6 14.3165C2.52632 14.3165 0 12.7907 0 10.5801V10.1553C0 9.17034 0.80589 8.37193 1.8 8.37193H10.2ZM10.2 9.26361H1.8C1.33218 9.26361 0.94773 9.61725 0.904122 10.0694L0.9 10.1553V10.5801C0.9 12.1699 2.93327 13.4248 6 13.4248C8.9556 13.4248 11.0129 12.1735 11.0973 10.676L11.1 10.5801V10.1553C11.1 9.6918 10.7431 9.31093 10.2867 9.26771L10.2 9.26361ZM6 0.0495605C7.98822 0.0495605 9.6 1.64644 9.6 3.61629C9.6 5.58613 7.98822 7.18302 6 7.18302C4.01178 7.18302 2.4 5.58613 2.4 3.61629C2.4 1.64644 4.01178 0.0495605 6 0.0495605ZM6 0.941243C4.50882 0.941243 3.3 2.1389 3.3 3.61629C3.3 5.09369 4.50882 6.29134 6 6.29134C7.49118 6.29134 8.7 5.09369 8.7 3.61629C8.7 2.1389 7.49118 0.941243 6 0.941243Z" fill="#60676B"/>
</svg>
